<svg width="160" height="160" viewBox="0 0 160 160" fill="none" xmlns="http://www.w3.org/2000/svg">
<circle cx="80" cy="80" r="80" fill="url(#paint0_linear_645_723)"/>
<circle cx="80" cy="80" r="53.75" stroke="#DDDDDD" stroke-width="0.5"/>
<path d="M106.5 70.3775C106.5 61.334 99.0249 54 89.8075 54H55.4109C54.3431 54 53.5 54.8271 53.5 55.8749V86.755V86.9205C62.1554 86.369 68.3378 82.3436 69.1808 81.737L61.9305 73.3001C65.1341 70.6532 66.5392 71.1495 67.7195 71.315C68.8998 71.4804 72.4406 72.2524 74.8012 72.3075C77.1617 72.3627 87.3346 65.8006 90.763 63.7603C94.1914 61.7752 95.6527 62.7126 95.6527 62.7126C95.6527 62.7126 96.3271 64.2566 93.7418 67.2344C91.1564 70.2121 82.7821 78.8696 82.3887 81.1856C82.0514 83.5016 82.1638 87.0308 82.1638 88.2439C82.1638 89.4571 82.3887 90.8908 79.185 93.5377L71.9348 85.0456C71.0355 85.9279 63.2794 93.9236 63.167 106H103.409C104.645 106 105.264 104.621 104.533 103.684L90.0323 86.755C99.1373 86.5896 106.5 79.3107 106.5 70.3775Z" fill="white"/>
<path d="M145.232 84.5615L145.369 82.871L146.242 82.953L146.105 84.6324C146.058 85.2108 146.14 85.7025 146.349 86.1076C146.563 86.5131 146.88 86.8299 147.302 87.0582C147.727 87.2905 148.235 87.4306 148.824 87.4785L149.319 87.5186C149.783 87.5563 150.199 87.534 150.567 87.452C150.94 87.3703 151.259 87.232 151.525 87.0371C151.794 86.8426 152.007 86.5948 152.162 86.2939C152.316 85.9968 152.41 85.648 152.442 85.2476L152.59 83.4235L153.469 83.4949L153.321 85.3189C153.278 85.8491 153.15 86.3257 152.936 86.7487C152.727 87.172 152.442 87.5277 152.083 87.8157C151.727 88.1078 151.307 88.32 150.822 88.4523C150.341 88.5849 149.808 88.6275 149.222 88.5799L148.738 88.5406C148.152 88.4931 147.631 88.3649 147.174 88.1562C146.721 87.9477 146.342 87.6688 146.038 87.3195C145.734 86.9739 145.512 86.5677 145.37 86.1009C145.233 85.6382 145.186 85.1251 145.232 84.5615ZM153.42 84.101L145.323 83.4437L145.41 82.3705L153.507 83.0277L153.42 84.101Z" fill="white"/>
<path d="M143.123 96.8584C143.222 96.45 143.381 96.0961 143.599 95.7969C143.82 95.5022 144.086 95.2662 144.397 95.0891C144.707 94.9155 145.051 94.8076 145.428 94.7653C145.806 94.7229 146.201 94.7518 146.613 94.8518L146.841 94.907C147.318 95.0228 147.725 95.1963 148.064 95.4277C148.405 95.6599 148.677 95.9286 148.878 96.234C149.08 96.5393 149.21 96.8618 149.269 97.2015C149.329 97.5412 149.318 97.8755 149.238 98.2045C149.137 98.6238 148.977 98.9677 148.758 99.2363C148.539 99.5084 148.276 99.7105 147.968 99.8426C147.664 99.9755 147.326 100.046 146.952 100.055C146.582 100.065 146.191 100.02 145.779 99.92L145.329 99.8108L146.392 95.4298L147.211 95.6284L146.391 99.0064L146.467 99.0248C146.731 99.0735 146.997 99.0807 147.266 99.0463C147.534 99.0156 147.771 98.9201 147.978 98.7599C148.186 98.5997 148.331 98.3479 148.414 98.0045C148.47 97.7768 148.472 97.5553 148.421 97.34C148.373 97.1256 148.272 96.927 148.117 96.744C147.963 96.561 147.759 96.3987 147.506 96.257C147.254 96.1153 146.95 96.0015 146.596 95.9155L146.368 95.8603C146.09 95.7927 145.819 95.7671 145.554 95.7834C145.293 95.8041 145.052 95.8662 144.832 95.9697C144.611 96.0768 144.422 96.2242 144.265 96.4121C144.108 96.6035 143.996 96.8366 143.929 97.1113C143.843 97.4656 143.842 97.7831 143.927 98.064C144.012 98.3449 144.154 98.6069 144.351 98.85L143.721 99.3402C143.56 99.1672 143.417 98.962 143.291 98.7247C143.164 98.4875 143.082 98.2129 143.043 97.901C143.003 97.5927 143.029 97.2452 143.123 96.8584Z" fill="white"/>
<path d="M140.944 105.844C140.851 106.071 140.812 106.3 140.826 106.531C140.84 106.762 140.902 106.972 141.013 107.163C141.128 107.354 141.286 107.502 141.489 107.605L141.117 108.513C140.793 108.361 140.531 108.123 140.33 107.799C140.131 107.48 140.012 107.12 139.971 106.718C139.935 106.317 139.998 105.918 140.16 105.522C140.332 105.103 140.556 104.766 140.832 104.514C141.107 104.265 141.416 104.09 141.759 103.989C142.1 103.892 142.459 103.86 142.835 103.893C143.213 103.932 143.59 104.028 143.965 104.182L144.182 104.271C144.557 104.424 144.891 104.619 145.184 104.856C145.479 105.098 145.714 105.373 145.889 105.682C146.063 105.994 146.16 106.335 146.181 106.706C146.201 107.079 146.124 107.476 145.952 107.896C145.773 108.333 145.527 108.679 145.214 108.932C144.905 109.187 144.559 109.345 144.176 109.405C143.796 109.471 143.409 109.433 143.017 109.292L143.389 108.383C143.627 108.461 143.862 108.481 144.094 108.443C144.325 108.409 144.535 108.318 144.724 108.171C144.915 108.028 145.063 107.829 145.168 107.575C145.287 107.282 145.33 107.012 145.295 106.764C145.261 106.522 145.171 106.302 145.022 106.104C144.876 105.912 144.695 105.741 144.479 105.592C144.264 105.448 144.035 105.326 143.791 105.226L143.574 105.137C143.329 105.037 143.079 104.962 142.821 104.913C142.564 104.864 142.316 104.856 142.077 104.891C141.836 104.929 141.617 105.022 141.419 105.17C141.224 105.323 141.066 105.548 140.944 105.844Z" fill="white"/>
<path d="M140.305 112.451L140.416 112.517C140.79 112.74 141.104 113.001 141.359 113.3C141.617 113.6 141.803 113.924 141.918 114.269C142.036 114.616 142.073 114.974 142.031 115.343C141.992 115.714 141.865 116.08 141.65 116.441C141.433 116.805 141.171 117.093 140.863 117.304C140.557 117.52 140.223 117.658 139.862 117.72C139.502 117.787 139.128 117.779 138.74 117.695C138.356 117.613 137.977 117.461 137.603 117.238L137.493 117.173C137.119 116.95 136.805 116.689 136.55 116.39C136.295 116.091 136.11 115.766 135.994 115.416C135.879 115.07 135.841 114.712 135.88 114.342C135.921 113.976 136.049 113.611 136.266 113.247C136.483 112.882 136.744 112.594 137.048 112.381C137.356 112.17 137.689 112.031 138.05 111.965C138.411 111.903 138.784 111.913 139.168 111.995C139.553 112.076 139.932 112.229 140.305 112.451ZM139.887 113.404L139.777 113.338C139.518 113.184 139.256 113.069 138.99 112.992C138.727 112.918 138.471 112.889 138.223 112.906C137.973 112.926 137.742 112.998 137.529 113.122C137.319 113.249 137.141 113.435 136.995 113.681C136.85 113.924 136.773 114.166 136.764 114.407C136.755 114.653 136.803 114.889 136.907 115.115C137.01 115.342 137.157 115.553 137.348 115.748C137.54 115.949 137.765 116.127 138.024 116.281L138.134 116.347C138.39 116.499 138.65 116.611 138.915 116.682C139.181 116.758 139.439 116.787 139.689 116.767C139.941 116.752 140.173 116.682 140.385 116.558C140.596 116.437 140.775 116.253 140.921 116.007C141.066 115.764 141.143 115.52 141.151 115.273C141.157 115.03 141.108 114.793 141.003 114.562C140.9 114.336 140.751 114.124 140.557 113.926C140.366 113.73 140.143 113.556 139.887 113.404Z" fill="white"/>
<path d="M138.57 125.29L131.771 120.074L132.402 119.25L139.202 124.467L138.57 125.29Z" fill="white"/>
<path d="M125.732 126.713C126.026 126.412 126.343 126.189 126.684 126.043C127.024 125.903 127.373 125.836 127.731 125.842C128.086 125.852 128.437 125.935 128.783 126.091C129.129 126.248 129.454 126.475 129.757 126.771L129.925 126.935C130.276 127.279 130.537 127.636 130.71 128.008C130.885 128.382 130.981 128.752 130.998 129.117C131.015 129.483 130.962 129.826 130.84 130.149C130.717 130.471 130.537 130.753 130.3 130.995C129.999 131.303 129.685 131.517 129.36 131.636C129.033 131.758 128.703 131.797 128.371 131.754C128.042 131.713 127.715 131.6 127.389 131.417C127.066 131.237 126.753 130.998 126.45 130.701L126.119 130.378L129.272 127.155L129.874 127.745L127.443 130.229L127.499 130.284C127.701 130.46 127.926 130.603 128.175 130.71C128.42 130.821 128.673 130.86 128.933 130.828C129.193 130.797 129.447 130.654 129.694 130.402C129.858 130.234 129.973 130.045 130.039 129.834C130.108 129.625 130.123 129.403 130.083 129.167C130.044 128.93 129.952 128.687 129.807 128.436C129.662 128.185 129.459 127.932 129.199 127.677L129.031 127.513C128.827 127.313 128.607 127.152 128.371 127.031C128.136 126.915 127.897 126.845 127.655 126.822C127.41 126.801 127.172 126.831 126.942 126.912C126.709 126.997 126.493 127.14 126.295 127.342C126.04 127.602 125.878 127.875 125.807 128.16C125.737 128.445 125.724 128.742 125.77 129.052L124.978 129.151C124.928 128.92 124.909 128.671 124.922 128.402C124.935 128.134 125.004 127.855 125.13 127.567C125.253 127.282 125.454 126.997 125.732 126.713Z" fill="white"/>
<path d="M113.171 137.308C112.96 137.433 112.791 137.593 112.663 137.785C112.536 137.978 112.459 138.184 112.434 138.403C112.41 138.625 112.448 138.838 112.548 139.042L111.705 139.545C111.538 139.229 111.471 138.881 111.505 138.501C111.538 138.127 111.659 137.767 111.868 137.421C112.08 137.079 112.369 136.798 112.737 136.579C113.127 136.347 113.508 136.213 113.881 136.177C114.25 136.143 114.602 136.189 114.937 136.314C115.268 136.442 115.574 136.632 115.854 136.885C116.134 137.143 116.377 137.446 116.584 137.794L116.704 137.995C116.912 138.344 117.062 138.7 117.154 139.066C117.244 139.436 117.267 139.797 117.221 140.149C117.172 140.503 117.045 140.834 116.839 141.143C116.63 141.453 116.331 141.725 115.941 141.957C115.535 142.199 115.131 142.327 114.728 142.342C114.327 142.36 113.956 142.278 113.614 142.096C113.271 141.92 112.985 141.657 112.755 141.309L113.599 140.806C113.743 141.011 113.919 141.168 114.127 141.278C114.332 141.389 114.554 141.443 114.794 141.439C115.033 141.44 115.27 141.369 115.507 141.229C115.778 141.067 115.974 140.876 116.095 140.657C116.214 140.443 116.274 140.213 116.274 139.966C116.273 139.724 116.231 139.479 116.147 139.23C116.063 138.986 115.953 138.75 115.818 138.524L115.698 138.322C115.563 138.095 115.407 137.885 115.231 137.691C115.055 137.497 114.861 137.342 114.649 137.226C114.433 137.112 114.202 137.055 113.955 137.055C113.707 137.06 113.446 137.144 113.171 137.308Z" fill="white"/>
<path d="M108.664 142.196L108.713 142.315C108.878 142.717 108.972 143.115 108.997 143.507C109.022 143.902 108.977 144.273 108.861 144.618C108.746 144.966 108.561 145.275 108.306 145.544C108.052 145.817 107.731 146.033 107.342 146.193C106.949 146.354 106.567 146.426 106.194 146.41C105.82 146.398 105.47 146.309 105.144 146.141C104.816 145.978 104.522 145.747 104.262 145.447C104.004 145.151 103.793 144.801 103.628 144.399L103.579 144.28C103.414 143.877 103.319 143.48 103.295 143.088C103.271 142.695 103.318 142.324 103.436 141.975C103.552 141.63 103.737 141.321 103.991 141.048C104.243 140.78 104.565 140.565 104.958 140.405C105.35 140.244 105.732 140.17 106.103 140.182C106.475 140.199 106.825 140.288 107.153 140.451C107.48 140.619 107.772 140.851 108.03 141.147C108.288 141.444 108.499 141.793 108.664 142.196ZM107.758 142.706L107.709 142.587C107.595 142.308 107.454 142.059 107.287 141.837C107.122 141.62 106.935 141.443 106.727 141.308C106.515 141.173 106.286 141.092 106.042 141.064C105.798 141.039 105.544 141.081 105.279 141.189C105.018 141.296 104.811 141.444 104.658 141.631C104.504 141.823 104.4 142.04 104.347 142.283C104.293 142.526 104.284 142.783 104.319 143.054C104.352 143.33 104.425 143.607 104.539 143.886L104.588 144.005C104.701 144.28 104.842 144.526 105.011 144.742C105.178 144.963 105.367 145.141 105.579 145.275C105.789 145.414 106.016 145.498 106.261 145.526C106.502 145.556 106.755 145.517 107.02 145.408C107.282 145.301 107.49 145.151 107.644 144.959C107.795 144.769 107.898 144.55 107.954 144.302C108.007 144.059 108.015 143.8 107.979 143.526C107.944 143.255 107.871 142.981 107.758 142.706Z" fill="white"/>
<path d="M98.1079 147.993L97.093 143.263L98.1077 143.046L99.3743 148.948L98.4142 149.154L98.1079 147.993ZM97.9816 146.394L98.4543 146.309C98.5372 146.714 98.5645 147.098 98.536 147.462C98.5083 147.829 98.4218 148.161 98.2764 148.459C98.131 148.756 97.924 149.006 97.6555 149.208C97.3877 149.414 97.0574 149.559 96.6646 149.644C96.3882 149.703 96.1251 149.718 95.8752 149.688C95.626 149.661 95.398 149.583 95.1912 149.452C94.9844 149.321 94.8056 149.135 94.6548 148.894C94.5041 148.652 94.3889 148.346 94.3093 147.975L93.4653 144.042L94.4745 143.825L95.308 147.709C95.3743 148.018 95.4801 148.254 95.6254 148.417C95.767 148.581 95.9414 148.684 96.1484 148.727C96.3563 148.774 96.5875 148.77 96.8421 148.715C97.1403 148.651 97.3781 148.545 97.5555 148.397C97.7329 148.248 97.8617 148.069 97.9419 147.857C98.0221 147.646 98.0637 147.415 98.0668 147.163C98.067 146.916 98.0386 146.659 97.9816 146.394ZM94.2769 147.771L94.9089 147.418C94.9747 147.743 94.9887 148.065 94.9508 148.385C94.9094 148.706 94.8154 149.004 94.669 149.279C94.5189 149.554 94.3128 149.791 94.0508 149.988C93.7895 150.188 93.4715 150.329 93.0969 150.409C92.7805 150.477 92.4915 150.495 92.2299 150.464C91.9647 150.433 91.7297 150.349 91.5249 150.21C91.3173 150.076 91.141 149.884 90.9959 149.633C90.8509 149.383 90.7386 149.072 90.659 148.701L89.8267 144.823L90.8413 144.605L91.676 148.494C91.747 148.825 91.8548 149.07 91.9993 149.23C92.1409 149.393 92.3141 149.491 92.5188 149.523C92.7206 149.56 92.9507 149.55 93.2089 149.495C93.4307 149.447 93.6189 149.367 93.7735 149.254C93.928 149.141 94.049 149.005 94.1365 148.845C94.2248 148.689 94.2815 148.519 94.3067 148.335C94.3282 148.152 94.3183 147.964 94.2769 147.771Z" fill="white"/>
<path d="M72.6363 146.036L72.3968 149.134C72.3784 149.372 72.4107 149.581 72.4937 149.763C72.5726 149.948 72.703 150.096 72.8846 150.207C73.0663 150.318 73.2962 150.385 73.5744 150.406C73.834 150.426 74.0655 150.399 74.2689 150.326C74.4686 150.251 74.6297 150.146 74.7522 150.01C74.8709 149.874 74.9367 149.722 74.9496 149.556L75.9787 149.635C75.9621 149.85 75.89 150.059 75.7624 150.262C75.6348 150.465 75.4606 150.643 75.2397 150.798C75.0148 150.956 74.752 151.074 74.4513 151.151C74.1466 151.232 73.8125 151.258 73.4491 151.23C73.0115 151.196 72.6315 151.092 72.3092 150.918C71.9832 150.744 71.7373 150.499 71.5714 150.184C71.4015 149.873 71.3338 149.492 71.3685 149.044L71.5852 146.24C71.6007 146.04 71.6005 145.825 71.5846 145.596C71.565 145.367 71.5263 145.168 71.4685 145L71.4753 144.911L72.549 144.994C72.5917 145.117 72.6203 145.277 72.6348 145.476C72.649 145.679 72.6495 145.865 72.6363 146.036ZM72.2558 148.642L72.3005 147.918L73.3408 147.999C73.6337 148.021 73.8971 148.017 74.1307 147.987C74.3641 147.96 74.5622 147.906 74.7252 147.826C74.8881 147.745 75.0158 147.637 75.1083 147.503C75.2005 147.372 75.2537 147.214 75.2681 147.028C75.2827 146.839 75.2534 146.663 75.1801 146.501C75.1068 146.339 74.9885 146.205 74.8251 146.099C74.6577 145.996 74.4479 145.935 74.1957 145.916C73.8805 145.891 73.5972 145.937 73.3458 146.052C73.0944 146.166 72.8908 146.315 72.735 146.497C72.5754 146.678 72.4831 146.86 72.4579 147.041L72.0567 146.512C72.0947 146.358 72.1785 146.191 72.3081 146.011C72.4377 145.83 72.6056 145.66 72.8119 145.501C73.0143 145.345 73.2515 145.22 73.5237 145.125C73.7919 145.034 74.0892 145.001 74.4155 145.026C74.8235 145.058 75.1752 145.165 75.4707 145.348C75.7624 145.531 75.9833 145.763 76.1333 146.043C76.2792 146.327 76.3393 146.635 76.3135 146.969C76.2885 147.292 76.2036 147.571 76.0586 147.806C75.9133 148.044 75.7156 148.236 75.4657 148.381C75.2154 148.53 74.9201 148.634 74.5798 148.693C74.2394 148.753 73.8634 148.766 73.4518 148.735L72.2558 148.642Z" fill="white"/>
<path d="M57.9435 150.126L55.4152 149.21C54.8417 149.002 54.389 148.739 54.0572 148.421C53.7219 148.102 53.5132 147.733 53.4311 147.316C53.3442 146.9 53.3908 146.444 53.5708 145.948C53.6975 145.598 53.8851 145.304 54.1337 145.066C54.3775 144.83 54.6691 144.659 55.0084 144.552C55.3429 144.448 55.7115 144.413 56.1141 144.448L56.4373 144.441L58.8135 145.302L58.5256 146.129L56.7316 145.479C56.3679 145.347 56.0426 145.301 55.7557 145.339C55.4675 145.381 55.2229 145.488 55.0219 145.661C54.821 145.833 54.6729 146.051 54.5779 146.313C54.4714 146.607 54.436 146.885 54.4715 147.147C54.5071 147.409 54.6275 147.644 54.8327 147.853C55.0331 148.064 55.3274 148.24 55.7156 148.381L57.2315 148.93L59.6991 142.122L60.7115 142.489L57.9435 150.126ZM56.2476 140.871L56.8498 145.006L55.7935 144.629L55.1442 140.542L55.167 140.479L56.2476 140.871Z" fill="white"/>
<path d="M49.7918 141.262L49.7294 141.374C49.5178 141.755 49.2663 142.076 48.9749 142.34C48.6817 142.607 48.3642 142.803 48.0224 142.927C47.6787 143.055 47.3219 143.104 46.952 143.072C46.5802 143.044 46.2107 142.928 45.8434 142.724C45.4729 142.518 45.1777 142.264 44.9579 141.963C44.7331 141.663 44.5844 141.334 44.5121 140.974C44.4346 140.616 44.432 140.242 44.5042 139.852C44.5745 139.466 44.7155 139.082 44.9271 138.702L44.9895 138.59C45.2011 138.21 45.4526 137.888 45.744 137.624C46.0354 137.361 46.3545 137.166 46.7014 137.04C47.0433 136.915 47.4001 136.866 47.7718 136.895C48.1385 136.924 48.5071 137.042 48.8776 137.248C49.2481 137.454 49.5442 137.706 49.7658 138.004C49.9856 138.305 50.1343 138.635 50.2117 138.993C50.2841 139.352 50.2851 139.725 50.2147 140.112C50.1444 140.498 50.0034 140.882 49.7918 141.262ZM48.8274 140.872L48.8898 140.76C49.0363 140.497 49.1438 140.231 49.2123 139.963C49.2789 139.698 49.3002 139.441 49.2762 139.194C49.2489 138.945 49.17 138.715 49.0393 138.507C48.9069 138.301 48.7155 138.128 48.4652 137.989C48.2182 137.852 47.974 137.782 47.7327 137.779C47.4863 137.779 47.2516 137.833 47.0286 137.943C46.8057 138.053 46.5991 138.206 46.4089 138.403C46.2137 138.601 46.0428 138.831 45.8963 139.095L45.8339 139.207C45.6892 139.467 45.5852 139.73 45.5218 139.997C45.4533 140.265 45.4327 140.524 45.46 140.774C45.4822 141.024 45.5587 141.254 45.6893 141.463C45.8167 141.67 46.0055 141.843 46.2558 141.983C46.5028 142.12 46.7495 142.189 46.9959 142.19C47.2391 142.189 47.4747 142.133 47.7027 142.022C47.9257 141.912 48.1332 141.757 48.3251 141.557C48.5153 141.361 48.6827 141.132 48.8274 140.872Z" fill="white"/>
<path d="M39.5372 132.083C39.3425 131.933 39.1319 131.835 38.9055 131.788C38.6791 131.741 38.4596 131.746 38.2469 131.803C38.032 131.863 37.8481 131.978 37.6952 132.146L36.9161 131.549C37.1483 131.277 37.4468 131.086 37.8118 130.977C38.1716 130.869 38.5509 130.848 38.9496 130.915C39.3461 130.984 39.7141 131.15 40.0535 131.41C40.4135 131.686 40.6791 131.991 40.8503 132.324C41.0185 132.654 41.1063 132.998 41.1135 133.355C41.1178 133.71 41.0544 134.065 40.9233 134.419C40.787 134.774 40.5955 135.112 40.3487 135.434L40.2061 135.62C39.9593 135.942 39.6833 136.213 39.3781 136.433C39.0676 136.655 38.7405 136.809 38.3965 136.897C38.0497 136.982 37.6947 136.987 37.3318 136.91C36.9659 136.831 36.6029 136.653 36.2429 136.377C35.8681 136.089 35.5994 135.761 35.4368 135.392C35.2719 135.027 35.2105 134.652 35.2527 134.267C35.2896 133.882 35.4275 133.519 35.6663 133.178L36.4454 133.775C36.3085 133.984 36.2276 134.206 36.2027 134.44C36.1748 134.672 36.2073 134.898 36.3001 135.12C36.3877 135.341 36.5407 135.536 36.7591 135.704C37.0099 135.896 37.2594 136.008 37.5076 136.039C37.7505 136.071 37.9867 136.041 38.2161 135.95C38.4402 135.859 38.6526 135.729 38.8531 135.559C39.0484 135.39 39.2264 135.201 39.3871 134.992L39.5298 134.806C39.6905 134.596 39.8284 134.374 39.9433 134.138C40.0582 133.903 40.1303 133.665 40.1598 133.425C40.1862 133.183 40.1538 132.947 40.0626 132.718C39.9661 132.489 39.791 132.278 39.5372 132.083Z" fill="white"/>
<path d="M27.6338 131.918L33.7811 125.947L34.5042 126.691L28.3569 132.662L27.6338 131.918ZM26.8812 127.508L30.7371 127.433L32.86 127.425L32.1299 128.251L30.4907 128.373L27.7597 128.412L26.8812 127.508ZM31.8685 123.978L31.3039 127.528L30.2704 127.786L31.021 123.105L31.8685 123.978Z" fill="white"/>
<path d="M26.5458 117.02C26.7906 117.362 26.9551 117.713 27.0395 118.073C27.1187 118.433 27.1239 118.789 27.0552 119.14C26.9843 119.488 26.8416 119.819 26.6271 120.133C26.4127 120.446 26.1331 120.727 25.7883 120.974L25.5978 121.11C25.1987 121.396 24.8011 121.592 24.4052 121.697C24.0062 121.804 23.6253 121.834 23.2625 121.788C22.8997 121.741 22.5702 121.629 22.2743 121.453C21.9783 121.276 21.7317 121.05 21.5346 120.774C21.2833 120.424 21.1272 120.078 21.0662 119.737C21.0031 119.394 21.0219 119.062 21.1226 118.743C21.2204 118.426 21.3877 118.123 21.6247 117.834C21.8587 117.548 22.148 117.281 22.4928 117.034L22.8692 116.764L25.4944 120.429L24.8095 120.92L22.7854 118.094L22.7219 118.14C22.5128 118.308 22.3337 118.505 22.1844 118.73C22.0329 118.953 21.9502 119.196 21.9363 119.457C21.9223 119.719 22.0183 119.993 22.224 120.281C22.3605 120.471 22.527 120.617 22.7234 120.719C22.9168 120.823 23.1333 120.876 23.3729 120.878C23.6124 120.881 23.8683 120.832 24.1406 120.733C24.4129 120.634 24.6972 120.479 24.9935 120.266L25.184 120.13C25.4169 119.963 25.6133 119.774 25.7735 119.564C25.9284 119.352 26.0386 119.129 26.104 118.895C26.1673 118.657 26.1788 118.418 26.1387 118.176C26.0965 117.932 25.993 117.695 25.8284 117.465C25.6161 117.169 25.3759 116.961 25.1076 116.842C24.8394 116.723 24.5487 116.659 24.2357 116.65L24.2755 115.853C24.5115 115.844 24.7606 115.869 25.0227 115.929C25.2848 115.988 25.5468 116.105 25.8086 116.279C26.0683 116.449 26.314 116.697 26.5458 117.02Z" fill="white"/>
<path d="M16.3887 111.894L17.0866 111.519L18.6314 114.394L17.9335 114.769L16.3887 111.894ZM16.118 114.491L15.6295 113.581L20.9229 110.737C21.1031 110.641 21.2241 110.54 21.2859 110.435C21.3478 110.33 21.3696 110.225 21.3516 110.121C21.3336 110.016 21.2973 109.913 21.2427 109.812C21.2022 109.736 21.1534 109.661 21.0963 109.586C21.0341 109.51 20.9867 109.453 20.954 109.416L21.6935 109.012C21.7552 109.072 21.8275 109.156 21.9105 109.263C21.9951 109.365 22.0814 109.498 22.1694 109.662C22.2891 109.885 22.3549 110.114 22.3668 110.348C22.3786 110.582 22.3113 110.811 22.1647 111.033C22.0131 111.254 21.7604 111.459 21.4065 111.649L16.118 114.491Z" fill="white"/>
<path d="M13.8837 100.237L13.6631 100.298C13.3547 100.383 13.0735 100.356 12.8193 100.218C12.5642 100.076 12.3903 99.836 12.2976 99.4988C12.2039 99.1581 12.2303 98.8615 12.3769 98.609C12.5235 98.3565 12.751 98.1879 13.0594 98.103L13.28 98.0424C13.5848 97.9585 13.8648 97.9876 14.1199 98.1296C14.3704 98.269 14.5425 98.5091 14.6362 98.8498C14.729 99.1869 14.7038 99.4812 14.5608 99.7327C14.4143 99.9852 14.1886 100.153 13.8837 100.237Z" fill="white"/>
<path d="M15.087 82.543L15.1197 84.2388L14.2437 84.2446L14.2112 82.5599C14.2 81.9798 14.0698 81.4986 13.8206 81.1165C13.5677 80.7345 13.2199 80.451 12.7774 80.2661C12.331 80.0776 11.8122 79.989 11.2209 80.0004L10.7244 80.01C10.2596 80.019 9.84783 80.0827 9.48925 80.2012C9.12695 80.3198 8.8233 80.4894 8.5783 80.7099C8.32958 80.9305 8.14315 81.1982 8.01902 81.5131C7.89481 81.8243 7.83659 82.1807 7.84434 82.5823L7.87966 84.412L6.99828 84.4291L6.96296 82.5994C6.9527 82.0676 7.03258 81.5805 7.20262 81.1382C7.36894 80.696 7.6164 80.3137 7.945 79.9911C8.2698 79.6649 8.66671 79.4117 9.13571 79.2315C9.60099 79.0514 10.1274 78.9556 10.715 78.9443L11.2003 78.9349C11.7879 78.9236 12.3195 78.9989 12.7951 79.1609C13.267 79.3229 13.6715 79.5625 14.0088 79.8796C14.3459 80.1931 14.6081 80.5749 14.7954 81.0252C14.9789 81.4718 15.0761 81.9777 15.087 82.543ZM6.98654 83.821L15.1086 83.6642L15.1294 84.7409L7.00732 84.8976L6.98654 83.821Z" fill="white"/>
<path d="M15.9601 69.9663C15.902 70.3826 15.7793 70.7504 15.592 71.0698C15.4016 71.385 15.1604 71.6461 14.8686 71.8533C14.5773 72.0568 14.2459 72.1983 13.8742 72.2778C13.5026 72.3574 13.1068 72.3679 12.6868 72.3093L12.4547 72.2769C11.9684 72.209 11.5456 72.0768 11.1862 71.8801C10.8231 71.683 10.5262 71.4425 10.2954 71.1587C10.0646 70.8748 9.90294 70.5668 9.81034 70.2347C9.71775 69.9025 9.69484 69.5688 9.74163 69.2336C9.80127 68.8063 9.92637 68.4482 10.1169 68.1593C10.308 67.8667 10.55 67.6395 10.843 67.4776C11.1323 67.3151 11.4623 67.211 11.8331 67.1651C12.2001 67.1187 12.5936 67.1247 13.0135 67.1834L13.4722 67.2474L12.849 71.7122L12.0146 71.5958L12.4951 68.1532L12.4177 68.1424C12.1504 68.1201 11.8848 68.1394 11.621 68.2002C11.3576 68.2573 11.1308 68.3759 10.9404 68.5559C10.75 68.7359 10.6304 69.0009 10.5816 69.3508C10.5492 69.5829 10.5691 69.8035 10.6413 70.0126C10.7098 70.2213 10.8301 70.4089 11.0021 70.5756C11.1741 70.7424 11.3929 70.8837 11.6584 70.9996C11.9239 71.1155 12.2371 71.1987 12.5982 71.2491L12.8302 71.2815C13.1139 71.3211 13.3864 71.3197 13.6477 71.2773C13.9058 71.2307 14.1394 71.145 14.3483 71.0202C14.5578 70.8917 14.7311 70.7262 14.8683 70.5237C15.006 70.3176 15.0944 70.0746 15.1334 69.7946C15.1838 69.4336 15.1528 69.1175 15.0404 68.8465C14.928 68.5754 14.7615 68.3287 14.5409 68.1064L15.1191 67.5561C15.2964 67.7123 15.4595 67.9022 15.6086 68.1258C15.7576 68.3494 15.8671 68.6145 15.937 68.9209C16.0074 69.2237 16.0151 69.5721 15.9601 69.9663Z" fill="white"/>
<path d="M17.2776 60.6347C17.3481 60.3995 17.3651 60.1678 17.3287 59.9394C17.2923 59.711 17.2096 59.5076 17.0806 59.3292C16.948 59.1497 16.7757 59.0184 16.5637 58.9355L16.8455 57.9948C17.1823 58.1152 17.4665 58.3265 17.6981 58.6289C17.9273 58.9267 18.0815 59.2738 18.1607 59.6703C18.2364 60.0658 18.2128 60.4684 18.09 60.8781C17.9597 61.3128 17.7694 61.6693 17.519 61.9477C17.2697 62.2224 16.9794 62.4266 16.6481 62.5603C16.3179 62.6905 15.964 62.7572 15.5863 62.7605C15.2062 62.7592 14.8219 62.7004 14.4336 62.584L14.2091 62.5167C13.8207 62.4004 13.4692 62.2387 13.1545 62.0318C12.8374 61.8203 12.5767 61.5694 12.3725 61.2791C12.1693 60.9852 12.0392 60.655 11.9821 60.2884C11.926 59.9182 11.9631 59.5158 12.0934 59.0811C12.229 58.6286 12.4401 58.2609 12.7269 57.9779C13.01 57.6939 13.339 57.5032 13.7137 57.4058C14.086 57.3038 14.4743 57.3037 14.8787 57.4054L14.5969 58.3461C14.3528 58.2924 14.1169 58.2955 13.8893 58.3554C13.6627 58.4118 13.4625 58.5226 13.2887 58.688C13.1124 58.8487 12.9848 59.0609 12.9058 59.3246C12.815 59.6274 12.7992 59.9003 12.8584 60.1433C12.9152 60.3816 13.0269 60.5918 13.1937 60.7738C13.358 60.9512 13.5551 61.1034 13.7849 61.2305C14.0122 61.353 14.2524 61.4522 14.5054 61.528L14.7298 61.5953C14.9828 61.6711 15.2397 61.7209 15.5005 61.7447C15.7613 61.7684 16.0091 61.7515 16.2439 61.6937C16.4797 61.6323 16.6886 61.5182 16.8706 61.3515C17.0501 61.18 17.1858 60.9411 17.2776 60.6347Z" fill="white"/>
<path d="M17.1583 54.2472L17.0421 54.1929C16.6478 54.0085 16.309 53.7803 16.0257 53.5082C15.7389 53.2345 15.5213 52.9315 15.3728 52.5993C15.221 52.2655 15.1476 51.9129 15.1529 51.5417C15.1547 51.1689 15.2447 50.7922 15.4227 50.4114C15.6023 50.0273 15.8346 49.715 16.1195 49.4746C16.4026 49.2292 16.7209 49.0578 17.0745 48.9603C17.4262 48.8579 17.799 48.829 18.1929 48.8735C18.5834 48.9165 18.9758 49.0302 19.37 49.2146L19.4862 49.2689C19.8805 49.4533 20.2193 49.6815 20.5026 49.9536C20.786 50.2257 21.0028 50.5304 21.1531 50.8676C21.3016 51.1998 21.3749 51.5523 21.3731 51.9251C21.3694 52.293 21.2778 52.6689 21.0982 53.053C20.9185 53.4372 20.688 53.7502 20.4064 53.9922C20.1216 54.2327 19.8032 54.4041 19.4515 54.5065C19.0979 54.604 18.7259 54.6312 18.3354 54.5882C17.9449 54.5452 17.5525 54.4316 17.1583 54.2472ZM17.4793 53.2578L17.5955 53.3122C17.8685 53.4398 18.1412 53.5284 18.4137 53.5778C18.6829 53.6256 18.9401 53.6289 19.1852 53.5875C19.432 53.5427 19.655 53.4479 19.8542 53.3028C20.05 53.1563 20.2086 52.9533 20.3299 52.6938C20.4497 52.4377 20.5022 52.1892 20.4876 51.9483C20.4712 51.7025 20.4002 51.4722 20.2748 51.2575C20.1493 51.0428 19.982 50.8476 19.7727 50.6717C19.5616 50.4908 19.3196 50.3366 19.0467 50.209L18.9304 50.1546C18.6609 50.0286 18.3907 49.9433 18.12 49.8988C17.8474 49.8494 17.5878 49.8471 17.341 49.8918C17.0925 49.9316 16.8686 50.024 16.6694 50.169C16.4718 50.3107 16.3123 50.5112 16.191 50.7707C16.0712 51.0267 16.0196 51.2777 16.036 51.5235C16.054 51.766 16.1266 51.9971 16.2539 52.2167C16.3793 52.4314 16.5484 52.6275 16.761 52.8049C16.9703 52.9808 17.2097 53.1318 17.4793 53.2578Z" fill="white"/>
<path d="M17.7079 41.1148L24.972 45.6621L24.4213 46.5417L17.1573 41.9944L17.7079 41.1148Z" fill="white"/>
<path d="M30.348 38.4474C30.0837 38.7742 29.789 39.0262 29.4639 39.2035C29.1383 39.3755 28.7971 39.4751 28.4403 39.5022C28.0858 39.5265 27.7288 39.477 27.3693 39.3538C27.0097 39.2305 26.6651 39.0355 26.3354 38.7689L26.1532 38.6216C25.7714 38.3129 25.4771 37.9817 25.2704 37.628C25.0608 37.2719 24.9302 36.9128 24.8787 36.5507C24.8271 36.1885 24.8472 35.8412 24.939 35.5088C25.0308 35.1764 25.1831 34.8787 25.3959 34.6154C25.6672 34.2799 25.9589 34.0375 26.2711 33.8881C26.5855 33.7358 26.9101 33.6657 27.2446 33.6779C27.5762 33.6878 27.9128 33.7685 28.2541 33.9202C28.5926 34.0695 28.9267 34.2774 29.2564 34.5441L29.6165 34.8352L26.782 38.3408L26.1269 37.8111L28.3124 35.1081L28.2517 35.059C28.0341 34.9022 27.7965 34.7819 27.539 34.6981C27.2839 34.6113 27.0284 34.5961 26.7725 34.6522C26.5166 34.7084 26.2775 34.8739 26.0554 35.1487C25.908 35.3309 25.8114 35.5302 25.7656 35.7467C25.7168 35.9608 25.7232 36.1836 25.7847 36.4151C25.8463 36.6466 25.961 36.8805 26.1288 37.1166C26.2966 37.3527 26.5222 37.5854 26.8057 37.8146L26.9879 37.9619C27.2106 38.142 27.4449 38.2812 27.6907 38.3795C27.9359 38.4726 28.1802 38.5194 28.4236 38.5201C28.6693 38.5179 28.9031 38.4654 29.125 38.3626C29.3492 38.2569 29.5502 38.0941 29.7279 37.8743C29.9571 37.5908 30.0934 37.304 30.1367 37.0137C30.1801 36.7235 30.1645 36.4263 30.09 36.1221L30.869 35.9484C30.9404 36.1736 30.9824 36.4204 30.995 36.6888C31.0075 36.9573 30.9648 37.2408 30.8668 37.5395C30.7711 37.8353 30.5982 38.1379 30.348 38.4474Z" fill="white"/>
<path d="M41.8162 26.6725C42.0142 26.5274 42.1675 26.3528 42.2761 26.1486C42.3847 25.9445 42.4414 25.7323 42.446 25.5122C42.4485 25.289 42.3901 25.0804 42.271 24.8864L43.063 24.3059C43.2591 24.6049 43.3584 24.9449 43.3609 25.3258C43.3642 25.7015 43.278 26.0714 43.1021 26.4356C42.9241 26.7967 42.6626 27.1036 42.3176 27.3565C41.9516 27.6248 41.5848 27.7945 41.2172 27.8656C40.8527 27.9345 40.4979 27.9225 40.153 27.8294C39.8111 27.7342 39.4885 27.574 39.1852 27.349C38.8827 27.1188 38.6116 26.8402 38.3719 26.5132L38.2334 26.3242C37.9937 25.9972 37.8107 25.6563 37.6844 25.3015C37.5588 24.9416 37.5021 24.5842 37.5142 24.2295C37.5293 23.8725 37.6245 23.5306 37.8 23.2037C37.9784 22.8746 38.2506 22.5759 38.6166 22.3076C38.9976 22.0283 39.3878 21.8623 39.7871 21.8093C40.1843 21.7534 40.5617 21.7996 40.9194 21.9479C41.2779 22.0909 41.5878 22.3249 41.8491 22.6499L41.0571 23.2305C40.8948 23.0405 40.7047 22.9008 40.487 22.8113C40.2722 22.7197 40.0457 22.6875 39.8073 22.7146C39.5698 22.7365 39.34 22.8289 39.118 22.9916C38.863 23.1785 38.6859 23.3868 38.5866 23.6163C38.4882 23.8406 38.4507 24.0757 38.474 24.3215C38.4982 24.562 38.5636 24.8023 38.6703 25.0423C38.7779 25.2771 38.9097 25.501 39.0658 25.7139L39.2044 25.9029C39.3605 26.1159 39.5354 26.3105 39.7292 26.4868C39.9229 26.663 40.1308 26.7988 40.353 26.8942C40.5781 26.9874 40.8136 27.0224 41.0593 26.999C41.3059 26.9705 41.5582 26.8617 41.8162 26.6725Z" fill="white"/>
<path d="M45.68 21.4312L45.6201 21.3178C45.417 20.9329 45.2845 20.5464 45.2228 20.1585C45.1593 19.7672 45.1685 19.3943 45.2506 19.0397C45.3309 18.6819 45.4852 18.3566 45.7133 18.0637C45.9398 17.7676 46.2388 17.5214 46.6105 17.3252C46.9856 17.1273 47.3592 17.0184 47.7315 16.9986C48.1053 16.9737 48.4626 17.0291 48.8033 17.1647C49.1456 17.2953 49.4603 17.4972 49.7475 17.7704C50.033 18.0403 50.2773 18.3677 50.4804 18.7526L50.5403 18.8661C50.7435 19.251 50.8759 19.6374 50.9377 20.0254C50.9994 20.4134 50.9885 20.7871 50.9049 21.1467C50.8229 21.5013 50.6686 21.8266 50.4422 22.1227C50.2173 22.4139 49.9174 22.6584 49.5423 22.8563C49.1673 23.0542 48.7946 23.1648 48.424 23.1879C48.0518 23.2077 47.6945 23.1523 47.3522 23.0217C47.0114 22.8861 46.6983 22.6834 46.4129 22.4134C46.1274 22.1435 45.8831 21.8161 45.68 21.4312ZM46.533 20.836L46.5929 20.9495C46.7335 21.2159 46.8975 21.4511 47.0851 21.6549C47.2708 21.8555 47.474 22.0133 47.6944 22.1282C47.9182 22.2414 48.1533 22.3003 48.3996 22.3049C48.6443 22.3062 48.8932 22.24 49.1465 22.1063C49.3965 21.9743 49.5884 21.8079 49.722 21.607C49.8573 21.401 49.9397 21.1746 49.9692 20.9277C49.9987 20.6808 49.9831 20.4241 49.9223 20.1575C49.8631 19.8859 49.7632 19.6169 49.6225 19.3505L49.5626 19.237C49.4237 18.9738 49.2598 18.7428 49.0707 18.544C48.8832 18.3401 48.6776 18.1816 48.4538 18.0684C48.2316 17.9501 47.9973 17.8887 47.7509 17.8842C47.5079 17.8778 47.2597 17.9415 47.0064 18.0752C46.7564 18.2072 46.5638 18.3761 46.4285 18.5821C46.2966 18.7863 46.2151 19.0144 46.184 19.2663C46.1545 19.5132 46.171 19.7716 46.2335 20.0414C46.2942 20.308 46.3941 20.5728 46.533 20.836Z" fill="white"/>
<path d="M55.4102 14.6619L56.886 19.2686L55.8978 19.5852L54.0559 13.8362L54.9911 13.5366L55.4102 14.6619ZM55.6934 16.2409L55.2314 16.3714C55.1089 15.9771 55.044 15.5975 55.0365 15.2328C55.0279 14.8645 55.0812 14.5252 55.1966 14.2148C55.312 13.9044 55.4934 13.6354 55.7407 13.4077C55.9869 13.1765 56.3013 12.9996 56.6839 12.8771C56.9531 12.7908 57.2135 12.7503 57.4652 12.7556C57.7157 12.7574 57.9503 12.8131 58.169 12.9227C58.3877 13.0323 58.5839 13.1999 58.7578 13.4254C58.9316 13.6509 59.0763 13.9444 59.1921 14.3057L60.4194 18.1366L59.4365 18.4515L58.2244 14.6684C58.128 14.3673 57.9995 14.1429 57.8388 13.9952C57.6818 13.8463 57.4981 13.7606 57.2878 13.7382C57.0764 13.7121 56.8467 13.7389 56.5987 13.8183C56.3083 13.9114 56.0821 14.0405 55.9202 14.2056C55.7582 14.3707 55.6478 14.5624 55.5888 14.7805C55.5297 14.9986 55.5111 15.233 55.5329 15.4838C55.5571 15.73 55.6106 15.9823 55.6934 16.2409ZM59.2445 14.5057L58.6503 14.9187C58.5528 14.6023 58.5072 14.2829 58.5133 13.9607C58.523 13.6373 58.5871 13.3317 58.7058 13.0437C58.828 12.7545 59.0097 12.4991 59.2511 12.2772C59.4914 12.0518 59.7939 11.8807 60.1588 11.7638C60.467 11.6651 60.7528 11.6184 61.0162 11.6238C61.2832 11.6281 61.5254 11.6892 61.7428 11.807C61.9626 11.9202 62.157 12.0942 62.326 12.3291C62.495 12.564 62.6374 12.8621 62.7531 13.2234L63.9634 17.0012L62.9752 17.3178L61.7614 13.5294C61.6582 13.207 61.5268 12.9738 61.3673 12.8296C61.2103 12.6807 61.0283 12.6003 60.8214 12.5885C60.6169 12.572 60.3889 12.604 60.1374 12.6846C59.9214 12.7538 59.742 12.8523 59.5993 12.98C59.4567 13.1077 59.3497 13.2553 59.2783 13.4227C59.2058 13.5865 59.1661 13.7613 59.1592 13.9471C59.1559 14.1317 59.1843 14.3179 59.2445 14.5057Z" fill="white"/>
<path d="M80.6113 14.0178L80.5393 10.9109C80.5338 10.6729 80.4807 10.4676 80.3799 10.2951C80.2828 10.1188 80.1384 9.98446 79.9465 9.89217C79.7546 9.79988 79.5192 9.75696 79.2403 9.76342C78.98 9.76945 78.7523 9.81937 78.5573 9.91318C78.366 10.0069 78.2163 10.1276 78.1081 10.2752C78.0036 10.4227 77.9533 10.5801 77.9572 10.7475L76.9253 10.7714C76.9203 10.5557 76.9711 10.3406 77.0777 10.126C77.1844 9.9115 77.3398 9.71629 77.5441 9.54041C77.752 9.36073 78.0017 9.21728 78.2932 9.11007C78.5882 8.99906 78.918 8.93934 79.2824 8.93089C79.7212 8.92073 80.1097 8.98614 80.4478 9.12714C80.7896 9.26804 81.0588 9.4869 81.2555 9.78371C81.4557 10.0767 81.5611 10.4482 81.5715 10.8982L81.6366 13.7094C81.6413 13.9102 81.6629 14.1236 81.7017 14.3497C81.7441 14.5757 81.8025 14.7697 81.877 14.9316L81.8791 15.0209L80.8025 15.0458C80.7477 14.928 80.7031 14.7709 80.6688 14.5745C80.6344 14.3744 80.6152 14.1888 80.6113 14.0178ZM80.7289 11.3865L80.7569 12.1113L79.7138 12.1355C79.42 12.1423 79.1584 12.1725 78.929 12.2262C78.6995 12.2762 78.5077 12.3495 78.3537 12.446C78.1997 12.5426 78.0834 12.6625 78.0048 12.8057C77.9262 12.9452 77.8891 13.1079 77.8934 13.2938C77.8978 13.4835 77.9445 13.6554 78.0337 13.8096C78.1228 13.9638 78.254 14.0854 78.4272 14.1744C78.604 14.2596 78.8189 14.2993 79.0718 14.2934C79.3878 14.2861 79.6652 14.2127 79.9038 14.0732C80.1424 13.9338 80.3301 13.7657 80.4669 13.5691C80.6075 13.3724 80.6812 13.1828 80.6882 13.0003L81.1403 13.4865C81.1179 13.6433 81.0513 13.8178 80.9404 14.0102C80.8295 14.2025 80.6794 14.3883 80.4901 14.5675C80.3044 14.743 80.0809 14.8914 79.8195 15.0128C79.5618 15.1304 79.2693 15.193 78.9421 15.2005C78.533 15.21 78.1723 15.1384 77.86 14.9856C77.5514 14.8328 77.3084 14.6245 77.1312 14.3607C76.9575 14.0931 76.8669 13.792 76.8591 13.4573C76.8516 13.1338 76.9082 12.8479 77.029 12.5995C77.1496 12.3474 77.3271 12.1368 77.5613 11.9677C77.7954 11.7948 78.0788 11.6618 78.4115 11.5685C78.7442 11.4752 79.1169 11.4238 79.5297 11.4142L80.7289 11.3865Z" fill="white"/>
<path d="M95.3006 8.44095L97.9066 9.10486C98.4977 9.25545 98.974 9.47274 99.3354 9.75673C99.7004 10.0416 99.9442 10.3878 100.067 10.7952C100.194 11.1999 100.192 11.6582 100.062 12.1701C99.9703 12.5305 99.8123 12.8415 99.5883 13.103C99.3689 13.3618 99.0955 13.5609 98.7683 13.7002C98.4456 13.8368 98.0822 13.9073 97.678 13.9118L97.3572 13.951L94.9079 13.327L95.1134 12.4754L96.9624 12.9465C97.3373 13.042 97.6656 13.0565 97.9474 12.9901C98.2301 12.9201 98.463 12.7894 98.6461 12.5981C98.8291 12.4068 98.9551 12.1759 99.024 11.9056C99.1011 11.6028 99.1091 11.3227 99.048 11.0654C98.987 10.808 98.8441 10.5854 98.6194 10.3977C98.3992 10.2072 98.0891 10.061 97.689 9.95911L96.1264 9.56104L94.3386 16.5789L93.2951 16.3131L95.3006 8.44095ZM97.8962 17.4853L96.8913 13.4292L97.9794 13.7007L99.0265 17.7041L99.0099 17.769L97.8962 17.4853Z" fill="white"/>
<path d="M104.244 16.4068L104.295 16.289C104.467 15.8895 104.685 15.544 104.949 15.2527C105.214 14.9579 105.51 14.7314 105.838 14.573C106.167 14.4113 106.517 14.3275 106.888 14.3217C107.261 14.3124 107.64 14.3911 108.026 14.5577C108.416 14.7258 108.735 14.9487 108.983 15.2263C109.237 15.502 109.418 15.815 109.526 16.1655C109.639 16.5141 109.679 16.8858 109.646 17.2809C109.615 17.6725 109.513 18.0681 109.34 18.4676L109.289 18.5854C109.117 18.985 108.899 19.3304 108.635 19.6218C108.372 19.9131 108.074 20.1389 107.741 20.2992C107.413 20.4575 107.063 20.5413 106.691 20.5505C106.323 20.5578 105.944 20.4775 105.555 20.3094C105.166 20.1413 104.846 19.9201 104.596 19.6459C104.347 19.3683 104.166 19.0553 104.053 18.7067C103.945 18.3562 103.907 17.9852 103.938 17.5936C103.969 17.2019 104.071 16.8064 104.244 16.4068ZM105.242 16.6982L105.192 16.816C105.072 17.0926 104.992 17.3679 104.95 17.6417C104.911 17.9122 104.915 18.1694 104.964 18.4132C105.016 18.6585 105.117 18.8786 105.268 19.0734C105.421 19.2648 105.628 19.4172 105.891 19.5308C106.151 19.6428 106.401 19.688 106.641 19.6661C106.886 19.6424 107.114 19.5646 107.325 19.4328C107.536 19.3011 107.726 19.1279 107.896 18.9135C108.07 18.6971 108.217 18.4506 108.337 18.174L108.387 18.0562C108.505 17.783 108.583 17.5105 108.619 17.2385C108.66 16.9646 108.655 16.705 108.603 16.4597C108.556 16.2124 108.457 15.9914 108.306 15.7966C108.158 15.6033 107.953 15.4499 107.69 15.3363C107.431 15.2243 107.178 15.1801 106.933 15.2039C106.691 15.2291 106.462 15.3086 106.247 15.4423C106.036 15.5741 105.845 15.7489 105.674 15.9668C105.504 16.1812 105.36 16.425 105.242 16.6982Z" fill="white"/>
<path d="M115.341 24.4743C115.549 24.6038 115.768 24.6808 115.998 24.7054C116.228 24.73 116.446 24.7033 116.652 24.6254C116.86 24.5444 117.032 24.4124 117.167 24.2294L118.002 24.7474C117.797 25.0409 117.519 25.26 117.167 25.4046C116.819 25.5479 116.444 25.606 116.041 25.5788C115.639 25.5484 115.257 25.4204 114.893 25.1948C114.508 24.9554 114.213 24.6785 114.01 24.3641C113.81 24.0516 113.689 23.718 113.647 23.3633C113.607 23.0106 113.635 22.6515 113.731 22.2861C113.832 21.9195 113.989 21.564 114.203 21.2196L114.326 21.0205C114.54 20.676 114.788 20.379 115.07 20.1294C115.357 19.8786 115.667 19.6925 116.001 19.5713C116.338 19.452 116.69 19.4127 117.059 19.4534C117.431 19.4961 117.81 19.6371 118.195 19.8765C118.597 20.1257 118.897 20.4256 119.095 20.7763C119.295 21.1239 119.393 21.4913 119.389 21.8785C119.39 22.2645 119.289 22.6393 119.085 23.0031L118.25 22.4851C118.366 22.2635 118.425 22.0351 118.426 21.7997C118.431 21.5663 118.377 21.3441 118.262 21.1331C118.153 20.9209 117.982 20.7422 117.748 20.597C117.479 20.4302 117.22 20.3436 116.97 20.3373C116.725 20.3297 116.493 20.3827 116.274 20.4961C116.06 20.6083 115.861 20.7587 115.679 20.9473C115.501 21.1347 115.342 21.3406 115.203 21.565L115.08 21.764C114.94 21.9884 114.825 22.2233 114.734 22.4688C114.643 22.7144 114.594 22.958 114.589 23.1997C114.586 23.4433 114.642 23.6748 114.755 23.8941C114.874 24.1122 115.069 24.3056 115.341 24.4743Z" fill="white"/>
<path d="M127.487 23.656L121.931 30.1806L121.141 29.5077L126.697 22.9831L127.487 23.656ZM128.653 27.9756L124.821 28.4133L122.708 28.6222L123.357 27.7311L124.978 27.4548L127.693 27.1581L128.653 27.9756ZM124.021 31.9604L124.248 28.3722L125.252 28.0186L124.947 32.749L124.021 31.9604Z" fill="white"/>
<path d="M129.856 38.1924C129.579 37.8764 129.381 37.5432 129.261 37.1927C129.147 36.8426 129.107 36.4894 129.141 36.1332C129.177 35.7797 129.287 35.4363 129.469 35.103C129.652 34.7697 129.903 34.4632 130.221 34.1836L130.398 34.0291C130.767 33.7054 131.143 33.4717 131.527 33.3282C131.913 33.1822 132.289 33.1146 132.655 33.1253C133.021 33.1361 133.359 33.215 133.671 33.3619C133.983 33.5089 134.251 33.7096 134.474 33.9641C134.759 34.2885 134.948 34.6172 135.042 34.9502C135.139 35.286 135.153 35.6177 135.084 35.9453C135.017 36.2704 134.881 36.5883 134.673 36.8989C134.469 37.207 134.207 37.5009 133.888 37.7805L133.54 38.0859L130.567 34.6966L131.201 34.141L133.493 36.7543L133.551 36.7028C133.743 36.5151 133.902 36.3014 134.028 36.0619C134.157 35.8253 134.216 35.5761 134.204 35.3143C134.192 35.0526 134.069 34.7889 133.836 34.5233C133.682 34.3471 133.502 34.218 133.296 34.136C133.094 34.0516 132.873 34.02 132.634 34.0412C132.396 34.0625 132.146 34.1358 131.885 34.261C131.623 34.3862 131.356 34.569 131.082 34.8093L130.906 34.9638C130.69 35.1527 130.513 35.3599 130.375 35.5854C130.241 35.8112 130.153 36.044 130.111 36.2837C130.072 36.5263 130.084 36.7656 130.147 37.0017C130.213 37.2406 130.34 37.4664 130.526 37.6789C130.766 37.9529 131.026 38.136 131.305 38.228C131.583 38.3201 131.879 38.3553 132.191 38.3336L132.23 39.1308C131.996 39.1629 131.745 39.1623 131.479 39.129C131.212 39.0958 130.94 39.0054 130.662 38.8581C130.387 38.7135 130.118 38.4917 129.856 38.1924Z" fill="white"/>
<path d="M140.656 42.5418L139.997 42.9817L138.184 40.2671L138.843 39.8272L140.656 42.5418ZM140.677 39.9313L141.25 40.7897L136.253 44.1262C136.082 44.2398 135.972 44.3518 135.92 44.4622C135.869 44.5726 135.857 44.6789 135.885 44.781C135.913 44.8831 135.959 44.9821 136.023 45.078C136.07 45.1492 136.126 45.2193 136.19 45.2884C136.259 45.3585 136.312 45.4105 136.348 45.4446L135.65 45.917C135.583 45.8634 135.503 45.7871 135.41 45.6881C135.316 45.5943 135.218 45.4701 135.114 45.3154C134.974 45.105 134.887 44.8838 134.853 44.6517C134.818 44.4196 134.864 44.1859 134.988 43.9506C135.118 43.7163 135.35 43.4877 135.684 43.2646L140.677 39.9313Z" fill="white"/>
<path d="M146.823 61.2035L147.044 61.1461C147.354 61.066 147.635 61.0971 147.887 61.2393C148.14 61.3852 148.31 61.6274 148.398 61.9658C148.486 62.3079 148.455 62.6041 148.305 62.8543C148.154 63.1046 147.924 63.2698 147.615 63.3499L147.393 63.4072C147.087 63.4865 146.808 63.4531 146.555 63.3073C146.306 63.1641 146.138 62.9214 146.049 62.5793C145.962 62.2409 145.991 61.947 146.138 61.6976C146.289 61.4474 146.517 61.2827 146.823 61.2035Z" fill="white"/>
<defs>
<linearGradient id="paint0_linear_645_723" x1="-0.0076171" y1="79.9985" x2="159.985" y2="79.9985" gradientUnits="userSpaceOnUse">
<stop offset="0.0961599" stop-color="#FF704A"/>
<stop offset="0.8427" stop-color="#FF435D"/>
</linearGradient>
</defs>
</svg>
